<svg width="20" height="18" viewBox="0 0 20 18" fill="none" xmlns="http://www.w3.org/2000/svg">
<path d="M10 0C4.47656 0 0 3.63672 0 8.125C0 10.0625 0.835938 11.8359 2.22656 13.2305C1.73828 15.1992 0.105469 16.9531 0.0859375 16.9727C0 17.0625 -0.0234375 17.1953 0.0273438 17.3125C0.078125 17.4297 0.1875 17.5 0.3125 17.5C2.90234 17.5 4.84375 16.2578 5.80469 15.4922C7.08203 15.9727 8.5 16.25 10 16.25C15.5234 16.25 20 12.6133 20 8.125C20 3.63672 15.5234 0 10 0ZM5 9.375C4.30859 9.375 3.75 8.81641 3.75 8.125C3.75 7.43359 4.30859 6.875 5 6.875C5.69141 6.875 6.25 7.43359 6.25 8.125C6.25 8.81641 5.69141 9.375 5 9.375ZM10 9.375C9.30859 9.375 8.75 8.81641 8.75 8.125C8.75 7.43359 9.30859 6.875 10 6.875C10.6914 6.875 11.25 7.43359 11.25 8.125C11.25 8.81641 10.6914 9.375 10 9.375ZM15 9.375C14.3086 9.375 13.75 8.81641 13.75 8.125C13.75 7.43359 14.3086 6.875 15 6.875C15.6914 6.875 16.25 7.43359 16.25 8.125C16.25 8.81641 15.6914 9.375 15 9.375Z" fill="black"/>
</svg>
