<svg width="18" height="20" viewBox="0 0 18 20" fill="none" xmlns="http://www.w3.org/2000/svg">
<path d="M1.25 18.125C1.25 18.6223 1.44754 19.0992 1.79917 19.4508C2.1508 19.8025 2.62772 20 3.125 20H14.375C14.8723 20 15.3492 19.8025 15.7008 19.4508C16.0525 19.0992 16.25 18.6223 16.25 18.125V5H1.25V18.125ZM11.875 8.125C11.875 7.95924 11.9408 7.80027 12.0581 7.68306C12.1753 7.56585 12.3342 7.5 12.5 7.5C12.6658 7.5 12.8247 7.56585 12.9419 7.68306C13.0591 7.80027 13.125 7.95924 13.125 8.125V16.875C13.125 17.0408 13.0591 17.1997 12.9419 17.3169C12.8247 17.4342 12.6658 17.5 12.5 17.5C12.3342 17.5 12.1753 17.4342 12.0581 17.3169C11.9408 17.1997 11.875 17.0408 11.875 16.875V8.125ZM8.125 8.125C8.125 7.95924 8.19084 7.80027 8.30805 7.68306C8.42527 7.56585 8.58424 7.5 8.75 7.5C8.91576 7.5 9.07473 7.56585 9.19194 7.68306C9.30915 7.80027 9.375 7.95924 9.375 8.125V16.875C9.375 17.0408 9.30915 17.1997 9.19194 17.3169C9.07473 17.4342 8.91576 17.5 8.75 17.5C8.58424 17.5 8.42527 17.4342 8.30805 17.3169C8.19084 17.1997 8.125 17.0408 8.125 16.875V8.125ZM4.375 8.125C4.375 7.95924 4.44085 7.80027 4.55806 7.68306C4.67527 7.56585 4.83424 7.5 5 7.5C5.16576 7.5 5.32473 7.56585 5.44194 7.68306C5.55915 7.80027 5.625 7.95924 5.625 8.125V16.875C5.625 17.0408 5.55915 17.1997 5.44194 17.3169C5.32473 17.4342 5.16576 17.5 5 17.5C4.83424 17.5 4.67527 17.4342 4.55806 17.3169C4.44085 17.1997 4.375 17.0408 4.375 16.875V8.125ZM16.875 1.25001H12.1875L11.8203 0.519538C11.7425 0.363372 11.6227 0.232008 11.4743 0.140225C11.326 0.0484421 11.1549 -0.00011828 10.9805 6.84872e-06H6.51562C6.34155 -0.000662313 6.17081 0.047717 6.02297 0.139602C5.87512 0.231487 5.75615 0.363161 5.67969 0.519538L5.3125 1.25001H0.625C0.45924 1.25001 0.300268 1.31585 0.183058 1.43306C0.065848 1.55027 0 1.70925 0 1.87501L0 3.12501C0 3.29077 0.065848 3.44974 0.183058 3.56695C0.300268 3.68416 0.45924 3.75001 0.625 3.75001H16.875C17.0408 3.75001 17.1997 3.68416 17.3169 3.56695C17.4341 3.44974 17.5 3.29077 17.5 3.12501V1.87501C17.5 1.70925 17.4341 1.55027 17.3169 1.43306C17.1997 1.31585 17.0408 1.25001 16.875 1.25001Z" fill="black"/>
</svg>
