<svg width="30" height="30" viewBox="0 0 30 30" fill="none" xmlns="http://www.w3.org/2000/svg">
<path d="M16.2499 8.75003H13.7499V13.75H8.74994V16.25H13.7499V21.25H16.2499V16.25H21.2499V13.75H16.2499V8.75003ZM14.9999 2.50003C8.09994 2.50003 2.49994 8.10003 2.49994 15C2.49994 21.9 8.09994 27.5 14.9999 27.5C21.8999 27.5 27.4999 21.9 27.4999 15C27.4999 8.10003 21.8999 2.50003 14.9999 2.50003ZM14.9999 25C9.48744 25 4.99994 20.5125 4.99994 15C4.99994 9.48753 9.48744 5.00003 14.9999 5.00003C20.5124 5.00003 24.9999 9.48753 24.9999 15C24.9999 20.5125 20.5124 25 14.9999 25Z" fill="black"/>
</svg>
