<svg width="10" height="10" viewBox="0 0 10 10" fill="none" xmlns="http://www.w3.org/2000/svg">
<path d="M9.70404 1.66035C10.0945 1.28076 10.0945 0.664294 9.70404 0.284697C9.3136 -0.0948991 8.67952 -0.0948991 8.28908 0.284697L5 3.48545L1.70779 0.287734C1.31735 -0.0918624 0.683273 -0.0918624 0.292831 0.287734C-0.0976105 0.66733 -0.0976105 1.28379 0.292831 1.66339L3.58504 4.86111L0.295955 8.06187C-0.094487 8.44146 -0.094487 9.05793 0.295955 9.43752C0.686397 9.81712 1.32047 9.81712 1.71092 9.43752L5 6.23677L8.29221 9.43449C8.68265 9.81408 9.31673 9.81408 9.70717 9.43449C10.0976 9.05489 10.0976 8.43843 9.70717 8.05883L6.41496 4.86111L9.70404 1.66035Z" fill="black"/>
</svg>
